<svg data-v-0dd9719b="" version="1.0" xmlns="http://www.w3.org/2000/svg" xmlns:xlink="http://www.w3.org/1999/xlink" width="100%" height="100%" viewBox="0 0 340.000000 250.000000" preserveAspectRatio="xMidYMid meet" color-interpolation-filters="sRGB" style="margin: auto;"> <rect data-v-0dd9719b="" x="0" y="0" width="100%" height="100%" fill="#0d0821" fill-opacity="1" class="background"></rect> <!----> <g data-v-0dd9719b="" fill="#ffffff" class="icon-text-wrapper icon-svg-group iconsvg" transform="translate(66.75499725341797,55.23888397216797)"><g fill="#dd4164" class="iconsvg-imagesvg icon_container" transform="translate(67.79689025878906,0)" mask="url(#ce3da154-5567-4a6e-8ee2-a820c475d8b6)"><rect fill="#ffffff" fill-opacity="0" stroke-width="2" x="0" y="0" width="70.89622641509433" height="70.89622641509433" class="image-rect"></rect> <svg viewBox="0 0 60 60" x="0" y="0" width="70.89622641509433" height="70.89622641509433" class="image-svg-svg bn" style="overflow: visible;"><g hollow-target=""><g><svg fill="#000000" xmlns="http://www.w3.org/2000/svg" xmlns:xlink="http://www.w3.org/1999/xlink" xml:space="preserve" version="1.1" style="shape-rendering: geometricprecision; text-rendering: geometricprecision; overflow: visible;" viewBox="0 0 333 333" x="0" y="0" fill-rule="evenodd" clip-rule="evenodd" width="60" height="60" filtersec="colorsf8950599774" filter="url(#_uB4apNXgWEztmAKOW_gs)"><g transform="scale(1, 1) skewX(0)"><defs><filter id="_uB4apNXgWEztmAKOW_gs"><feColorMatrix type="matrix" values="0 0 0 0 0.86328125  0 0 0 0 0.25390625  0 0 0 0 0.390625  0 0 0 1 0"></feColorMatrix></filter></defs><g><path class="fil0" d="M79 0l175 0c22,0 42,9 56,23l0 0 0 0c14,15 23,34 23,56l0 175c0,22 -9,42 -23,56l0 0 0 0c-14,14 -34,23 -56,23l-175 0c-22,0 -41,-9 -56,-23l0 0 0 0c-14,-14 -23,-34 -23,-56l0 -175c0,-22 9,-41 23,-56l0 0 0 0c15,-14 34,-23 56,-23zm175 16l-175 0c-17,0 -33,7 -44,19l0 0c-12,11 -19,27 -19,44l0 175c0,18 7,33 19,45l0 0c11,11 27,18 44,18l175 0c18,0 33,-7 45,-18l0 0c11,-12 18,-27 18,-45l0 -175c0,-17 -7,-33 -18,-44l0 0c-12,-12 -27,-19 -45,-19z"></path></g></g></svg></g> <g filter="url(#colors6464268670)"><svg xmlns="http://www.w3.org/2000/svg" xmlns:xlink="http://www.w3.org/1999/xlink" viewBox="0 0 44.05078125 51.3984375" width="40" height="40" x="10" y="10" class="image-svg-letter"><path transform="translate(-5.5546875 51.3984375)" d="M49.61-51.40L49.61 0L35.65 0L35.65-20.95L19.51-20.95L19.51 0L5.55 0L5.55-51.40L19.51-51.40L19.51-32.34L35.65-32.34L35.65-51.40L49.61-51.40Z"></path></svg></g></g></svg> <defs><filter id="colors6464268670"><feColorMatrix type="matrix" values="0 0 0 0 0.86328125  0 0 0 0 0.25390625  0 0 0 0 0.390625  0 0 0 1 0" class="icon-fecolormatrix"></feColorMatrix></filter> <filter id="colorsf8950599774"><feColorMatrix type="matrix" values="0 0 0 0 0.99609375  0 0 0 0 0.99609375  0 0 0 0 0.99609375  0 0 0 1 0" class="icon-fecolormatrix"></feColorMatrix></filter> <filter id="colorsb9865969106"><feColorMatrix type="matrix" values="0 0 0 0 0  0 0 0 0 0  0 0 0 0 0  0 0 0 1 0" class="icon-fecolormatrix"></feColorMatrix></filter></defs><rect v-gra="id" width="82.89622497558594" height="82.89622497558594" transform="translate(-6, -6)" style="pointer-events:none;" fill="url(#ud2pDpp9qS_WkKEKP2kXP)"></rect></g> <g transform="translate(0,77.89622497558594)"><g data-gra="path-name" fill-rule="" class="tp-name iconsvg-namesvg" transform="translate(0,0)"><g transform="scale(1)"><g><path d="M31.51-32.65L31.51 0 22.64 0 22.64-13.31 12.39-13.31 12.39 0 3.53 0 3.53-32.65 12.39-32.65 12.39-20.54 22.64-20.54 22.64-32.65 31.51-32.65ZM46.83-25.3L46.83 0 38.1 0 38.1-25.3 46.83-25.3ZM37.87-31.6L37.87-31.6Q37.87-33.56 38.97-34.52 40.06-35.48 42.49-35.48L42.49-35.48Q44.93-35.48 46.04-34.5 47.16-33.52 47.16-31.6L47.16-31.6Q47.16-27.76 42.49-27.76L42.49-27.76Q37.87-27.76 37.87-31.6ZM68.2 0L59.55 0 49.91-25.3 59.02-25.3 63.31-10.34Q63.33-10.23 63.4-9.96 63.46-9.69 63.53-9.32 63.6-8.95 63.65-8.54 63.71-8.13 63.71-7.77L63.71-7.77 63.86-7.77Q63.86-8.93 64.27-10.29L64.27-10.29 68.75-25.3 77.84-25.3 68.2 0ZM93.07 0.45L93.07 0.45Q86.75 0.45 83.26-2.91 79.76-6.27 79.76-12.48L79.76-12.48Q79.76-18.89 83-22.32 86.24-25.75 92.25-25.75L92.25-25.75Q97.96-25.75 101.08-22.77 104.19-19.78 104.19-14.18L104.19-14.18 104.19-10.29 88.58-10.29Q88.67-8.17 90.14-6.97 91.6-5.76 94.12-5.76L94.12-5.76Q96.42-5.76 98.35-6.2 100.29-6.63 102.54-7.68L102.54-7.68 102.54-1.41Q100.49-0.36 98.3 0.04 96.11 0.45 93.07 0.45ZM92.56-19.81L92.56-19.81Q91.02-19.81 89.98-18.84 88.94-17.86 88.76-15.79L88.76-15.79 96.27-15.79Q96.22-17.62 95.23-18.71 94.23-19.81 92.56-19.81ZM152.94-32.65L144.9 0 134.47 0 131.35-14.22Q131.12-15.12 130.64-17.77 130.16-20.43 129.94-22.22L129.94-22.22Q129.76-20.77 129.36-18.61 128.96-16.46 128.57-14.65 128.18-12.84 125.32 0L125.32 0 114.89 0 106.81-32.65 115.31-32.65 118.86-16.28Q120.07-10.85 120.52-7.64L120.52-7.64Q120.81-9.91 121.55-13.82 122.3-17.73 122.95-20.3L122.95-20.3 125.83-32.65 134-32.65 136.79-20.3Q137.51-17.33 138.25-13.44 138.98-9.56 139.23-7.64L139.23-7.64Q139.52-10.12 140.81-16.23L140.81-16.23 144.43-32.65 152.94-32.65ZM179.2 0L173.15 0 171.47-3.35 171.3-3.35Q169.53-1.16 167.7-0.36 165.87 0.45 162.97 0.45L162.97 0.45Q159.39 0.45 157.34-1.7 155.28-3.84 155.28-7.73L155.28-7.73Q155.28-11.77 158.1-13.74 160.91-15.72 166.25-15.97L166.25-15.97 170.47-16.1 170.47-16.46Q170.47-19.58 167.39-19.58L167.39-19.58Q164.62-19.58 160.35-17.71L160.35-17.71 157.83-23.47Q162.25-25.75 169-25.75L169-25.75Q173.86-25.75 176.53-23.34 179.2-20.92 179.2-16.59L179.2-16.59 179.2 0ZM166.67-5.72L166.67-5.72Q168.26-5.72 169.39-6.72 170.51-7.73 170.51-9.33L170.51-9.33 170.51-11.3 168.5-11.21Q164.19-11.05 164.19-8.04L164.19-8.04Q164.19-5.72 166.67-5.72ZM192.04-0.36L182.08-25.3 191.28-25.3 195.57-10.79Q195.88-9.65 195.99-8.04L195.99-8.04 196.17-8.04Q196.35-9.58 196.71-10.74L196.71-10.74 201.11-25.3 210.02-25.3 200.01 1.61Q198.09 6.74 195.29 8.87 192.49 10.99 187.98 10.99L187.98 10.99Q186.23 10.99 184.4 10.61L184.4 10.61 184.4 3.75Q185.59 4.02 187.1 4.02L187.1 4.02Q188.27 4.02 189.14 3.57 190.01 3.13 190.66 2.31 191.3 1.5 192.04-0.36L192.04-0.36Z" transform="translate(-3.5299999713897705, 35.47999954223633)"></path></g> <!----> <!----> <!----> <!----> <!----> <!----> <!----></g></g> <g data-gra="path-slogan" fill-rule="" class="tp-slogan iconsvg-slogansvg" fill="url(#29f25131-c1ec-4a89-b815-93420ce091e1)" transform="translate(48.500003814697266,53.47000503540039)"><!----> <!----> <g transform="scale(1, 1)"><g transform="scale(1)"><path d="M0.50-1.02L1.10-1.72Q1.52-1.27 2.09-1.00Q2.66-0.73 3.28-0.73L3.28-0.73Q4.06-0.73 4.49-1.09Q4.92-1.44 4.92-2.02L4.92-2.02Q4.92-2.32 4.82-2.53Q4.72-2.74 4.54-2.89Q4.37-3.04 4.13-3.16Q3.89-3.28 3.61-3.41L3.61-3.41L2.48-3.90Q2.21-4.02 1.92-4.19Q1.63-4.36 1.40-4.60Q1.18-4.84 1.03-5.17Q0.89-5.50 0.89-5.93L0.89-5.93Q0.89-6.37 1.07-6.76Q1.26-7.14 1.59-7.42Q1.92-7.70 2.37-7.86Q2.82-8.02 3.36-8.02L3.36-8.02Q4.07-8.02 4.67-7.75Q5.27-7.48 5.69-7.04L5.69-7.04L5.15-6.40Q4.79-6.74 4.35-6.94Q3.91-7.14 3.36-7.14L3.36-7.14Q2.70-7.14 2.30-6.83Q1.90-6.53 1.90-5.99L1.90-5.99Q1.90-5.70 2.01-5.50Q2.12-5.30 2.32-5.15Q2.51-5.00 2.74-4.89Q2.96-4.78 3.20-4.68L3.20-4.68L4.32-4.20Q4.66-4.06 4.96-3.87Q5.26-3.68 5.47-3.44Q5.69-3.19 5.81-2.86Q5.94-2.53 5.94-2.10L5.94-2.10Q5.94-1.63 5.75-1.22Q5.57-0.82 5.22-0.51Q4.87-0.20 4.38-0.03Q3.89 0.14 3.26 0.14L3.26 0.14Q2.44 0.14 1.73-0.17Q1.02-0.48 0.50-1.02L0.50-1.02ZM8.47-3.20L10.84-3.20L10.46-4.40Q10.25-5.06 10.06-5.72Q9.86-6.37 9.67-7.06L9.67-7.06L9.62-7.06Q9.44-6.37 9.25-5.72Q9.06-5.06 8.84-4.40L8.84-4.40L8.47-3.20ZM11.83 0L11.09-2.40L8.22-2.40L7.46 0L6.44 0L9.11-7.87L10.24-7.87L12.90 0L11.83 0ZM15.29 0L12.77-7.87L13.84-7.87L15.10-3.62Q15.31-2.92 15.47-2.32Q15.64-1.72 15.86-1.02L15.86-1.02L15.91-1.02Q16.13-1.72 16.30-2.32Q16.46-2.92 16.67-3.62L16.67-3.62L17.93-7.87L18.95-7.87L16.45 0L15.29 0ZM20.03 0L20.03-7.87L24.56-7.87L24.56-7.03L21.02-7.03L21.02-4.56L24.01-4.56L24.01-3.71L21.02-3.71L21.02-0.85L24.68-0.85L24.68 0L20.03 0ZM28.78 0L28.78-7.87L29.95-7.87L31.48-3.65L32.05-2.04L32.10-2.04L32.65-3.65L34.16-7.87L35.34-7.87L35.34 0L34.39 0L34.39-4.33Q34.39-4.86 34.43-5.50Q34.48-6.13 34.52-6.66L34.52-6.66L34.48-6.66L33.84-4.91L32.33-0.79L31.76-0.79L30.24-4.91L29.62-6.66L29.57-6.66Q29.60-6.13 29.65-5.50Q29.70-4.86 29.70-4.33L29.70-4.33L29.70 0L28.78 0ZM40.40 0.14L40.40 0.14Q39.66 0.14 39.04-0.14Q38.42-0.43 37.98-0.97Q37.54-1.50 37.29-2.26Q37.04-3.02 37.04-3.97L37.04-3.97Q37.04-4.92 37.29-5.67Q37.54-6.42 37.98-6.94Q38.42-7.46 39.04-7.74Q39.66-8.02 40.40-8.02L40.40-8.02Q41.15-8.02 41.77-7.73Q42.38-7.45 42.83-6.93Q43.28-6.41 43.53-5.66Q43.78-4.91 43.78-3.97L43.78-3.97Q43.78-3.02 43.53-2.26Q43.28-1.50 42.83-0.97Q42.38-0.43 41.77-0.14Q41.15 0.14 40.40 0.14ZM40.40-0.73L40.40-0.73Q40.93-0.73 41.36-0.96Q41.78-1.19 42.09-1.61Q42.40-2.04 42.56-2.63Q42.73-3.23 42.73-3.97L42.73-3.97Q42.73-4.70 42.56-5.29Q42.40-5.88 42.09-6.29Q41.78-6.70 41.36-6.92Q40.93-7.14 40.40-7.14L40.40-7.14Q39.88-7.14 39.45-6.92Q39.02-6.70 38.72-6.29Q38.41-5.88 38.24-5.29Q38.08-4.70 38.08-3.97L38.08-3.97Q38.08-3.23 38.24-2.63Q38.41-2.04 38.72-1.61Q39.02-1.19 39.45-0.96Q39.88-0.73 40.40-0.73ZM45.47 0L45.47-7.87L46.50-7.87L49.34-2.93L50.20-1.30L50.24-1.30Q50.21-1.90 50.17-2.54Q50.12-3.18 50.12-3.80L50.12-3.80L50.12-7.87L51.07-7.87L51.07 0L50.04 0L47.18-4.96L46.33-6.58L46.28-6.58Q46.33-5.98 46.37-5.36Q46.42-4.74 46.42-4.12L46.42-4.12L46.42 0L45.47 0ZM53.23 0L53.23-7.87L57.77-7.87L57.77-7.03L54.23-7.03L54.23-4.56L57.22-4.56L57.22-3.71L54.23-3.71L54.23-0.85L57.89-0.85L57.89 0L53.23 0ZM60.83 0L60.83-3.05L58.46-7.87L59.53-7.87L60.55-5.65Q60.74-5.22 60.92-4.80Q61.10-4.38 61.31-3.94L61.31-3.94L61.36-3.94Q61.56-4.38 61.76-4.80Q61.97-5.22 62.15-5.65L62.15-5.65L63.16-7.87L64.20-7.87L61.84-3.05L61.84 0L60.83 0ZM67.69 0L67.69-7.87L72.23-7.87L72.23-7.03L68.69-7.03L68.69-4.37L71.69-4.37L71.69-3.53L68.69-3.53L68.69 0L67.69 0ZM76.40 0.14L76.40 0.14Q75.66 0.14 75.04-0.14Q74.42-0.43 73.98-0.97Q73.54-1.50 73.29-2.26Q73.04-3.02 73.04-3.97L73.04-3.97Q73.04-4.92 73.29-5.67Q73.54-6.42 73.98-6.94Q74.42-7.46 75.04-7.74Q75.66-8.02 76.40-8.02L76.40-8.02Q77.15-8.02 77.77-7.73Q78.38-7.45 78.83-6.93Q79.28-6.41 79.53-5.66Q79.78-4.91 79.78-3.97L79.78-3.97Q79.78-3.02 79.53-2.26Q79.28-1.50 78.83-0.97Q78.38-0.43 77.77-0.14Q77.15 0.14 76.40 0.14ZM76.40-0.73L76.40-0.73Q76.93-0.73 77.36-0.96Q77.78-1.19 78.09-1.61Q78.40-2.04 78.56-2.63Q78.73-3.23 78.73-3.97L78.73-3.97Q78.73-4.70 78.56-5.29Q78.40-5.88 78.09-6.29Q77.78-6.70 77.36-6.92Q76.93-7.14 76.40-7.14L76.40-7.14Q75.88-7.14 75.45-6.92Q75.02-6.70 74.72-6.29Q74.41-5.88 74.24-5.29Q74.08-4.70 74.08-3.97L74.08-3.97Q74.08-3.23 74.24-2.63Q74.41-2.04 74.72-1.61Q75.02-1.19 75.45-0.96Q75.88-0.73 76.40-0.73ZM82.46-7.07L82.46-4.14L83.78-4.14Q84.71-4.14 85.20-4.52Q85.69-4.90 85.69-5.66L85.69-5.66Q85.69-6.44 85.20-6.76Q84.71-7.07 83.78-7.07L83.78-7.07L82.46-7.07ZM86.92 0L85.79 0L83.89-3.32L82.46-3.32L82.46 0L81.47 0L81.47-7.87L83.93-7.87Q84.53-7.87 85.04-7.76Q85.55-7.64 85.91-7.38Q86.28-7.12 86.48-6.70Q86.69-6.28 86.69-5.66L86.69-5.66Q86.69-4.74 86.21-4.19Q85.73-3.64 84.92-3.43L84.92-3.43L86.92 0ZM92.14 0L92.14-3.05L89.77-7.87L90.84-7.87L91.86-5.65Q92.05-5.22 92.23-4.80Q92.41-4.38 92.62-3.94L92.62-3.94L92.66-3.94Q92.87-4.38 93.07-4.80Q93.28-5.22 93.46-5.65L93.46-5.65L94.46-7.87L95.51-7.87L93.14-3.05L93.14 0L92.14 0ZM99.31 0.14L99.31 0.14Q98.57 0.14 97.95-0.14Q97.33-0.43 96.89-0.97Q96.44-1.50 96.20-2.26Q95.95-3.02 95.95-3.97L95.95-3.97Q95.95-4.92 96.20-5.67Q96.44-6.42 96.89-6.94Q97.33-7.46 97.95-7.74Q98.57-8.02 99.31-8.02L99.31-8.02Q100.06-8.02 100.67-7.73Q101.29-7.45 101.74-6.93Q102.19-6.41 102.44-5.66Q102.68-4.91 102.68-3.97L102.68-3.97Q102.68-3.02 102.44-2.26Q102.19-1.50 101.74-0.97Q101.29-0.43 100.67-0.14Q100.06 0.14 99.31 0.14ZM99.31-0.73L99.31-0.73Q99.84-0.73 100.27-0.96Q100.69-1.19 101.00-1.61Q101.30-2.04 101.47-2.63Q101.64-3.23 101.64-3.97L101.64-3.97Q101.64-4.70 101.47-5.29Q101.30-5.88 101.00-6.29Q100.69-6.70 100.27-6.92Q99.84-7.14 99.31-7.14L99.31-7.14Q98.78-7.14 98.36-6.92Q97.93-6.70 97.63-6.29Q97.32-5.88 97.15-5.29Q96.98-4.70 96.98-3.97L96.98-3.97Q96.98-3.23 97.15-2.63Q97.32-2.04 97.63-1.61Q97.93-1.19 98.36-0.96Q98.78-0.73 99.31-0.73ZM104.34-3.25L104.34-7.87L105.34-7.87L105.34-3.23Q105.34-2.52 105.48-2.04Q105.62-1.56 105.87-1.27Q106.12-0.98 106.45-0.86Q106.79-0.73 107.17-0.73L107.17-0.73Q107.57-0.73 107.90-0.86Q108.24-0.98 108.49-1.27Q108.74-1.56 108.89-2.04Q109.03-2.52 109.03-3.23L109.03-3.23L109.03-7.87L109.99-7.87L109.99-3.25Q109.99-2.30 109.78-1.66Q109.56-1.01 109.18-0.61Q108.80-0.20 108.29-0.03Q107.77 0.14 107.17 0.14L107.17 0.14Q106.57 0.14 106.05-0.03Q105.53-0.20 105.15-0.61Q104.77-1.01 104.56-1.66Q104.34-2.30 104.34-3.25L104.34-3.25Z" transform="translate(-0.504, 8.016)"></path></g></g></g></g></g><defs v-gra="od"><linearGradient x1="0" y1="1" x2="0" y2="0" id="29f25131-c1ec-4a89-b815-93420ce091e1"><stop offset="0%" stop-color="#fa709a"></stop><stop offset="100%" stop-color="#ffe13f"></stop></linearGradient><filter id="42443b3f1de60f6b6fd3b6a9844b4764" filterUnits="objectBoundingBox"><feColorMatrix type="matrix" values="0 0 0 0 0.99609375  0 0 0 0 0.99609375  0 0 0 0 0.99609375  0 0 0 1 0"></feColorMatrix></filter></defs><defs v-gra="id"><filter id="2bf4b85a-d6af-4cee-8c6b-865cc6bf3542" filterUnits="userSpaceOnUse"><feColorMatrix type="matrix" values="0 0 0 0 0.99609375  0 0 0 0 0.99609375  0 0 0 0 0.99609375  0 0 0 1 0"></feColorMatrix></filter><linearGradient x1="0" y1="1" x2="0" y2="0" id="ud2pDpp9qS_WkKEKP2kXP"><stop offset="0%" stop-color="#fa709a"></stop><stop offset="100%" stop-color="#ffe13f"></stop></linearGradient><filter id="42443b3f1de60f6b6fd3b6a9844b4764" filterUnits="objectBoundingBox"><feColorMatrix type="matrix" values="0 0 0 0 0.99609375  0 0 0 0 0.99609375  0 0 0 0 0.99609375  0 0 0 1 0"></feColorMatrix></filter></defs><mask v-gra="im" id="ce3da154-5567-4a6e-8ee2-a820c475d8b6"><g fill="#dd4164" class="iconsvg-imagesvg icon_container" filter="url(#2bf4b85a-d6af-4cee-8c6b-865cc6bf3542)"><rect fill="#ffffff" fill-opacity="0" stroke-width="2" x="0" y="0" width="70.89622641509433" height="70.89622641509433" class="image-rect"></rect> <svg viewBox="0 0 60 60" x="0" y="0" width="70.89622641509433" height="70.89622641509433" class="image-svg-svg bn" style="overflow: visible;"><g hollow-target=""><g><svg fill="#000000" xmlns="http://www.w3.org/2000/svg" xmlns:xlink="http://www.w3.org/1999/xlink" xml:space="preserve" version="1.1" style="shape-rendering: geometricprecision; text-rendering: geometricprecision; overflow: visible;" viewBox="0 0 333 333" x="0" y="0" fill-rule="evenodd" clip-rule="evenodd" width="60" height="60" filtersec="colorsf8950599774"><g transform="scale(1, 1) skewX(0)"><defs><filter id="_uB4apNXgWEztmAKOW_gs"><feColorMatrix type="matrix" values="0 0 0 0 0.86328125  0 0 0 0 0.25390625  0 0 0 0 0.390625  0 0 0 1 0"></feColorMatrix></filter></defs><g><path class="fil0" d="M79 0l175 0c22,0 42,9 56,23l0 0 0 0c14,15 23,34 23,56l0 175c0,22 -9,42 -23,56l0 0 0 0c-14,14 -34,23 -56,23l-175 0c-22,0 -41,-9 -56,-23l0 0 0 0c-14,-14 -23,-34 -23,-56l0 -175c0,-22 9,-41 23,-56l0 0 0 0c15,-14 34,-23 56,-23zm175 16l-175 0c-17,0 -33,7 -44,19l0 0c-12,11 -19,27 -19,44l0 175c0,18 7,33 19,45l0 0c11,11 27,18 44,18l175 0c18,0 33,-7 45,-18l0 0c11,-12 18,-27 18,-45l0 -175c0,-17 -7,-33 -18,-44l0 0c-12,-12 -27,-19 -45,-19z"></path></g></g></svg></g> <g><svg xmlns="http://www.w3.org/2000/svg" xmlns:xlink="http://www.w3.org/1999/xlink" viewBox="0 0 44.05078125 51.3984375" width="40" height="40" x="10" y="10" class="image-svg-letter"><path transform="translate(-5.5546875 51.3984375)" d="M49.61-51.40L49.61 0L35.65 0L35.65-20.95L19.51-20.95L19.51 0L5.55 0L5.55-51.40L19.51-51.40L19.51-32.34L35.65-32.34L35.65-51.40L49.61-51.40Z"></path></svg></g></g></svg> <defs><filter id="colors6464268670"><feColorMatrix type="matrix" values="0 0 0 0 0.86328125  0 0 0 0 0.25390625  0 0 0 0 0.390625  0 0 0 1 0" class="icon-fecolormatrix"></feColorMatrix></filter> <filter id="colorsf8950599774"><feColorMatrix type="matrix" values="0 0 0 0 0.99609375  0 0 0 0 0.99609375  0 0 0 0 0.99609375  0 0 0 1 0" class="icon-fecolormatrix"></feColorMatrix></filter> <filter id="colorsb9865969106"><feColorMatrix type="matrix" values="0 0 0 0 0  0 0 0 0 0  0 0 0 0 0  0 0 0 1 0" class="icon-fecolormatrix"></feColorMatrix></filter></defs></g></mask></svg>